<svg width="24" height="24" viewBox="0 0 24 24" fill="none" xmlns="http://www.w3.org/2000/svg">
<path d="M6 4H18C19.1046 4 20 4.89543 20 6V8C20 9.10457 19.1046 10 18 10H6C4.89543 10 4 9.10457 4 8V6C4 4.89543 4.89543 4 6 4Z" stroke="#B783FF" stroke-width="2" stroke-linecap="round" stroke-linejoin="round"/>
<path d="M6 14H18C19.1046 14 20 14.8954 20 16V18C20 19.1046 19.1046 20 18 20H6C4.89543 20 4 19.1046 4 18V16C4 14.8954 4.89543 14 6 14Z" stroke="#B783FF" stroke-width="2" stroke-linecap="round" stroke-linejoin="round"/>
<path d="M8 8C8.55228 8 9 7.55228 9 7C9 6.44772 8.55228 6 8 6C7.44772 6 7 6.44772 7 7C7 7.55228 7.44772 8 8 8Z" fill="#B783FF"/>
<path d="M8 18C8.55228 18 9 17.5523 9 17C9 16.4477 8.55228 16 8 16C7.44772 16 7 16.4477 7 17C7 17.5523 7.44772 18 8 18Z" fill="#B783FF"/>
<line x1="3.41421" y1="2" x2="22" y2="20.5858" stroke="#B783FF" stroke-width="2" stroke-linecap="round"/>
</svg>
