<?xml version="1.0" encoding="UTF-8"?>
<!DOCTYPE svg PUBLIC "-//W3C//DTD SVG 1.1//EN" "http://www.w3.org/Graphics/SVG/1.1/DTD/svg11.dtd">
<svg xmlns="http://www.w3.org/2000/svg" version="1.1" width="813px" height="813px" style="shape-rendering:geometricPrecision; text-rendering:geometricPrecision; image-rendering:optimizeQuality; fill-rule:evenodd; clip-rule:evenodd" xmlns:xlink="http://www.w3.org/1999/xlink">
<g><path style="opacity:0.995" fill="#fefffe" d="M 379.5,-0.5 C 397.167,-0.5 414.833,-0.5 432.5,-0.5C 571.788,12.4262 678.955,77.4262 754,194.5C 787.905,251.709 807.405,313.376 812.5,379.5C 812.5,397.167 812.5,414.833 812.5,432.5C 800.539,563.638 741.205,667.138 634.5,743C 572.881,783.817 505.214,806.984 431.5,812.5C 414.167,812.5 396.833,812.5 379.5,812.5C 254.572,801.465 154.072,746.465 78,647.5C 31.588,583.321 5.42129,511.654 -0.5,432.5C -0.5,415.167 -0.5,397.833 -0.5,380.5C 10.3397,253.62 66.3397,152.12 167.5,76C 231.043,30.9838 301.71,5.4838 379.5,-0.5 Z M 580.5,208.5 C 586.105,207.908 591.439,208.741 596.5,211C 599.633,213.959 601.3,217.626 601.5,222C 577.077,343.446 552.911,464.946 529,586.5C 520.493,602.893 507.66,607.393 490.5,600C 435.461,556.489 380.461,512.989 325.5,469.5C 387.693,412.474 450.36,355.974 513.5,300C 517.036,296.799 520.203,293.299 523,289.5C 523.98,284.031 521.813,281.865 516.5,283C 513.382,284.059 510.382,285.392 507.5,287C 425.735,338.965 343.901,390.798 262,442.5C 227.167,430.667 192.333,418.833 157.5,407C 138.246,394.519 138.913,383.185 159.5,373C 299.842,317.837 440.175,263.004 580.5,208.5 Z M 323.5,472.5 C 344.767,488.427 365.767,504.761 386.5,521.5C 365.399,541.556 344.065,561.39 322.5,581C 319.13,583.078 315.463,583.911 311.5,583.5C 315.646,546.515 319.646,509.515 323.5,472.5 Z"/></g>
</svg>
