<?xml version="1.0" encoding="UTF-8"?>
<!-- Generator: visioncortex VTracer 0.6.4 -->
<svg version="1.1" xmlns="http://www.w3.org/2000/svg" width="800" height="800">
<path d="M0 0 C1.16 -0 2.32 -0 3.52 -0 C21.22 0.01 38.47 0.6 56 3.25 C57.02 3.39 58.03 3.54 59.08 3.69 C116.29 11.9 174.61 32.54 222.14 65.94 C224.15 67.36 226.18 68.75 228.2 70.15 C240.27 78.53 251.81 87.41 262.94 97 C263.54 97.52 264.14 98.04 264.76 98.57 C268.39 101.74 271.81 105.05 275.19 108.48 C277.06 110.31 279 112.01 280.99 113.72 C284.98 117.17 288.6 120.88 292.19 124.75 C292.83 125.44 293.47 126.14 294.14 126.85 C348.85 186.06 384.67 259.87 397.25 339.56 C397.4 340.51 397.55 341.47 397.71 342.45 C400.53 361.51 401.38 380.5 401.31 399.75 C401.31 401.46 401.31 401.46 401.31 403.2 C401.26 421.06 400.67 438.56 398 456.25 C397.83 457.4 397.66 458.55 397.48 459.74 C386.63 530.21 357.65 600.18 310.55 654.3 C308.11 657.13 305.77 660.02 303.44 662.94 C299.67 667.57 295.61 671.75 291.34 675.91 C289.27 677.98 287.38 680.08 285.5 682.31 C282.19 686.17 278.53 689.49 274.72 692.84 C272.35 694.94 270.04 697.08 267.73 699.24 C261.35 705.21 254.63 710.63 247.7 715.94 C246.13 717.15 244.58 718.39 243.03 719.64 C185.63 765.33 112.51 791.7 40 799.25 C39.12 799.35 38.24 799.44 37.34 799.54 C25.43 800.65 13.45 800.49 1.5 800.5 C0.31 800.5 -0.87 800.5 -2.09 800.5 C-19.94 800.49 -37.34 799.99 -55 797.25 C-56.19 797.07 -57.38 796.9 -58.6 796.71 C-125.84 786.53 -189.09 759.77 -243 718.25 C-243.55 717.83 -244.11 717.41 -244.68 716.97 C-252.13 711.28 -259.25 705.38 -266.09 698.95 C-268.3 696.9 -270.54 694.91 -272.82 692.94 C-277.2 689.13 -281.34 685.1 -285.44 681 C-286.18 680.25 -286.93 679.51 -287.7 678.74 C-292.46 673.93 -296.87 669.03 -301.04 663.7 C-303.03 661.21 -305.14 658.89 -307.31 656.56 C-324.49 637.58 -338.42 615.07 -350.66 592.69 C-351.93 590.38 -353.21 588.1 -354.5 585.81 C-385.46 530.02 -399.52 464.65 -399.31 401.25 C-399.31 400.08 -399.31 398.92 -399.31 397.72 C-399.26 380.03 -398.71 362.75 -396 345.25 C-395.82 344.06 -395.65 342.87 -395.46 341.65 C-387.13 286.68 -367.83 233.26 -338 186.25 C-337.32 185.17 -336.63 184.09 -335.93 182.98 C-327.38 169.9 -318.14 157.15 -308 145.25 C-307.01 144.07 -306.02 142.9 -305.03 141.72 C-300.42 136.27 -295.84 130.87 -290.68 125.94 C-288.96 124.21 -287.39 122.4 -285.8 120.54 C-282.08 116.26 -278.09 112.36 -273.94 108.5 C-272.82 107.46 -272.82 107.46 -271.69 106.4 C-260.01 95.56 -247.89 85.61 -235 76.25 C-234.3 75.74 -233.6 75.23 -232.88 74.7 C-223.21 67.68 -213.38 61.16 -203 55.25 C-202.29 54.85 -201.58 54.44 -200.86 54.02 C-190.41 48.08 -179.84 42.44 -169 37.25 C-167.92 36.73 -167.92 36.73 -166.81 36.19 C-126.33 16.81 -82.45 6.16 -38 1.25 C-37.04 1.14 -36.08 1.04 -35.1 0.93 C-23.44 -0.16 -11.7 0.01 0 0 Z M-29.06 115.81 C-48.55 140.29 -62.13 168.55 -72.94 197.75 C-73.39 198.95 -73.83 200.16 -74.3 201.4 C-77.53 210.32 -79.67 218.93 -82 228.25 C-27.22 228.25 27.56 228.25 84 228.25 C81.9 219.84 79.71 211.94 76.88 203.81 C76.48 202.69 76.09 201.56 75.69 200.4 C69.94 184.16 63.03 168.49 55 153.25 C54.63 152.53 54.26 151.81 53.87 151.08 C45.81 135.6 36.06 121.9 24 109.25 C23.43 108.62 22.86 107.99 22.28 107.34 C16.75 101.4 10.11 96.69 2.44 94 C-10.11 94.91 -21.23 106.76 -29.06 115.81 Z M-159.12 139 C-159.93 139.49 -160.73 139.98 -161.56 140.49 C-169.75 145.59 -177.41 151.3 -185 157.25 C-185.95 157.98 -186.89 158.71 -187.87 159.47 C-192.98 163.48 -197.84 167.73 -202.64 172.11 C-204.67 173.95 -206.73 175.73 -208.81 177.5 C-218.46 185.94 -227.09 195.18 -235 205.25 C-236.01 206.5 -237.03 207.74 -238.04 208.99 C-239.11 210.3 -240.18 211.62 -241.25 212.94 C-241.75 213.54 -242.24 214.15 -242.75 214.77 C-246.27 219.13 -248.99 223.43 -252 228.25 C-228.24 228.25 -204.48 228.25 -180 228.25 C-177.76 220.97 -175.56 213.77 -173.57 206.44 C-167.46 184.02 -159.71 162.41 -151 140.89 C-150.16 138.68 -149.51 136.56 -149 134.25 C-152.77 134.25 -155.98 137.07 -159.12 139 Z M151 134.25 C152.68 139.58 154.58 144.76 156.69 149.94 C165.17 171 171.77 192.43 178 214.25 C179.32 218.87 180.64 223.49 182 228.25 C205.43 228.25 228.86 228.25 253 228.25 C246.83 215.91 237.18 205.42 228 195.25 C227.15 194.3 227.15 194.3 226.28 193.34 C218.04 184.22 218.04 184.22 208.99 175.93 C206.6 173.91 204.34 171.77 202.06 169.62 C178.74 147.34 178.74 147.34 151 134.25 Z M-295 322.25 C-299.33 340.32 -299.33 340.32 -302.25 358.5 C-302.41 359.79 -302.58 361.07 -302.74 362.39 C-303.89 371.69 -304.79 380.89 -305 390.25 C-305.02 390.98 -305.04 391.7 -305.06 392.45 C-305.56 411.85 -304.14 431.27 -301.12 450.44 C-300.98 451.39 -300.83 452.34 -300.67 453.33 C-299.25 461.81 -297.11 469.83 -295 478.25 C-262.33 478.25 -229.66 478.25 -196 478.25 C-195.97 470.21 -195.97 470.21 -196.43 462.28 C-197.99 443.42 -198.31 424.68 -198.26 405.76 C-198.25 401.59 -198.26 397.42 -198.27 393.24 C-198.31 374.26 -197.88 355.47 -196.18 336.55 C-195.92 331.79 -196 327.02 -196 322.25 C-228.67 322.25 -261.34 322.25 -295 322.25 Z M-101 323.25 C-101.29 325.58 -101.52 327.89 -101.72 330.23 C-101.78 330.95 -101.84 331.66 -101.91 332.4 C-102.11 334.74 -102.31 337.09 -102.5 339.44 C-102.6 340.64 -102.6 340.64 -102.7 341.87 C-106.41 386.62 -106.99 432.65 -101 477.25 C-99.24 479.01 -96.91 478.37 -94.56 478.38 C-93.77 478.38 -92.98 478.37 -92.17 478.37 C-90.93 478.37 -90.93 478.37 -89.66 478.37 C-86.86 478.37 -84.05 478.37 -81.25 478.36 C-79.25 478.36 -77.25 478.36 -75.25 478.36 C-69.8 478.36 -64.36 478.36 -58.91 478.35 C-53.22 478.35 -47.53 478.34 -41.85 478.34 C-31.07 478.34 -20.29 478.33 -9.52 478.32 C2.75 478.31 15.02 478.31 27.28 478.3 C52.52 478.29 77.76 478.27 103 478.25 C103.42 473.46 103.83 468.67 104.24 463.88 C104.38 462.26 104.53 460.63 104.67 459.01 C108.56 414.23 109.06 367.89 103 323.25 C101.24 321.49 98.93 322.12 96.59 322.12 C95.81 322.12 95.02 322.12 94.22 322.12 C93.39 322.12 92.57 322.12 91.72 322.12 C88.93 322.11 86.15 322.12 83.36 322.12 C81.37 322.12 79.38 322.12 77.39 322.12 C71.98 322.11 66.56 322.11 61.14 322.12 C55.49 322.12 49.83 322.12 44.17 322.11 C34.68 322.11 25.18 322.11 15.68 322.12 C4.68 322.13 -6.32 322.12 -17.32 322.12 C-26.75 322.11 -36.18 322.11 -45.6 322.12 C-51.24 322.12 -56.88 322.12 -62.52 322.11 C-67.81 322.11 -73.11 322.11 -78.41 322.12 C-80.36 322.12 -82.31 322.12 -84.26 322.12 C-86.92 322.11 -89.57 322.12 -92.22 322.12 C-93 322.12 -93.78 322.12 -94.59 322.12 C-98.09 321.81 -98.09 321.81 -101 323.25 Z M198 322.25 C197.97 330.28 197.97 330.28 198.43 338.2 C200.01 357.21 200.31 376.1 200.26 395.17 C200.25 399.4 200.26 403.63 200.27 407.86 C200.31 427.02 199.9 445.98 198.18 465.07 C197.93 469.46 198 473.86 198 478.25 C230.67 478.25 263.34 478.25 297 478.25 C309.5 425.77 310.12 374.74 297 322.25 C264.33 322.25 231.66 322.25 198 322.25 Z M-252 572.25 C-248.34 577.74 -244.77 583.04 -240.69 588.19 C-240.22 588.78 -239.74 589.38 -239.26 590 C-235.68 594.49 -231.93 598.8 -228.04 603.02 C-226.17 605.06 -224.36 607.14 -222.56 609.25 C-215.94 616.84 -208.67 623.74 -201 630.25 C-199.64 631.45 -199.64 631.45 -198.25 632.67 C-186.65 642.78 -174.2 651.75 -161.19 659.94 C-160.21 660.55 -160.21 660.55 -159.21 661.18 C-155.9 663.22 -152.66 664.94 -149 666.25 C-149.56 664.76 -150.12 663.27 -150.67 661.79 C-151.2 660.39 -151.72 658.99 -152.24 657.59 C-153.82 653.37 -155.42 649.16 -157.05 644.97 C-161.49 633.47 -165.51 621.89 -169.19 610.12 C-169.58 608.88 -169.97 607.63 -170.37 606.34 C-173.86 595.04 -176.88 583.68 -180 572.25 C-203.76 572.25 -227.52 572.25 -252 572.25 Z M-82 572.25 C-73.07 612.43 -54.74 653.7 -28 685.25 C-27.53 685.86 -27.05 686.46 -26.57 687.09 C-20.03 695.27 -11.03 702.89 -1 706.25 C7.4 706.86 15.12 699.99 21.25 694.81 C50.49 667.94 66.82 627.24 79.12 590.44 C79.37 589.7 79.62 588.97 79.87 588.21 C80.57 586.11 81.26 584.02 81.95 581.92 C82.54 580.1 82.54 580.1 83.15 578.24 C84.14 575.29 84.14 575.29 84 572.25 C29.22 572.25 -25.56 572.25 -82 572.25 Z M182 572.25 C180.02 579.18 178.04 586.11 176 593.25 C169.19 616.59 161.97 639.61 152 661.84 C150.87 664.12 150.87 664.12 151 666.25 C180.46 655.39 212.04 626.2 231.31 602.06 C234.51 598.08 237.76 594.15 241.06 590.25 C249.18 581.94 249.18 581.94 254 572.25 C230.24 572.25 206.48 572.25 182 572.25 Z " fill="#FFFFFF" transform="translate(399,-0.25)"/>
</svg>
